<?xml version="1.0" encoding="utf-8"?>
<!-- Generator: Adobe Illustrator 24.0.1, SVG Export Plug-In . SVG Version: 6.00 Build 0)  -->
<svg version="1.1" id="login-bg" xmlns="http://www.w3.org/2000/svg" xmlns:xlink="http://www.w3.org/1999/xlink" x="0px" y="0px"
	 viewBox="0 0 1259.3 1143.3" style="enable-background:new 0 0 1259.3 1143.3;" xml:space="preserve">
<style type="text/css">
	.st0{fill:url(#Tracé_5_1_);}
	.st1{opacity:0.7;fill:url(#Tracé_6_1_);enable-background:new    ;}
	.st2{fill:#FFD524;}
	.st3{fill:#FFC32E;}
	.st4{fill:#FFE2B2;}
	.st5{fill:#3D4051;}
	.st6{fill:#FF582A;}
	.st7{fill:#AE1E0B;}
	.st8{fill:#009FDA;}
	.st9{fill:#0071B8;}
	.st10{fill:#484D5B;}
	.st11{fill:#CADFEF;}
	.st12{fill:#FFFFFF;}
	.st13{fill:#8D5115;}
	.st14{fill:#774206;}
	.st15{fill:#00C4D8;}
	.st16{fill:#008C41;}
	.st17{fill:#00B255;}
</style>
<g id="bg">
	
		<linearGradient id="Tracé_5_1_" gradientUnits="userSpaceOnUse" x1="591.9602" y1="940.4808" x2="592.9683" y2="940.4808" gradientTransform="matrix(1259.3199 0 0 -1143.38 -745465.1875 1075894)">
		<stop  offset="0" style="stop-color:#5482BF"/>
		<stop  offset="1" style="stop-color:#0058A3"/>
	</linearGradient>
	<path id="Tracé_5" class="st0" d="M1269.5-9.2v1152.6c-88.2-19.3-172.2-71.6-213.3-151.9c-25.9-50.6-36.5-113-81.8-147.4
		c-38-28.8-91.1-29.1-136.9-15.8s-87.1,38.3-131,57c-68.4,29.3-145.6,43.3-217.8,25.6c-72.2-17.8-138-71.3-157.5-143.2
		c-21.1-77.7,9.3-172.5-43.4-233.5c-59-68.2-179.4-41.5-244.8-103.5C1,391.1-5.3,326.3,3.3,269.3S32.6,157.1,34.5,99.5
		c1.2-37.9-8.3-78.7-30-108.7H1269.5z"/>
	
		<linearGradient id="Tracé_6_1_" gradientUnits="userSpaceOnUse" x1="592.515" y1="940.5452" x2="592.2529" y2="940.2126" gradientTransform="matrix(1259.3199 0 0 -1143.37 -745464.875 1075884.375)">
		<stop  offset="0" style="stop-color:#A7EBEB"/>
		<stop  offset="1" style="stop-color:#A7EBEB;stop-opacity:0"/>
	</linearGradient>
	<path id="Tracé_6" class="st1" d="M1240.5,1026.4c-78.4-4.6-160.1-51.9-178.7-128.3c-16.5-67.9,17.2-148.5-24.3-204.8
		c-32-43.3-97.3-49.6-147-28.9c-49.7,20.7-87.5,61.9-123.7,101.8c-36.2,39.9-74.3,80.9-124.3,101c-51.7,20.8-113.1,15.8-160.7-13.2
		s-80.5-81.1-85.8-136.6c-5.2-53.6,13.7-106.4,19.4-159.9c5.7-53.5-7.1-116.5-54.5-142.1c-40.6-21.9-90.1-8.3-135.1,1.8
		c-45,10.1-99.3,13.5-130-20.9C60.8,357,79.4,294.9,103.6,248c42.8-82.6,99.8-166.8,102.8-257.3H4.5c21.7,30,31.2,70.8,30,108.6
		c-1.9,57.7-22.5,112.9-31.1,169.8S1,391,42.8,430.7c65.4,62,185.9,35.4,244.8,103.5c52.8,60.9,22.3,155.8,43.4,233.5
		c19.5,71.9,85.3,125.4,157.5,143.2c72.2,17.8,149.5,3.8,217.8-25.6c43.8-18.8,85.2-43.8,131-57c45.8-13.2,99-13,136.9,15.8
		c45.3,34.4,55.9,96.8,81.8,147.4c41.2,80.3,125.1,132.6,213.3,151.9v-116.8C1259.8,1027,1250.2,1026.9,1240.5,1026.4z M938.5,753.5
		c-21,12.6-70.1,11.7-70.1-22c0-28.4,42.8-47.2,66.6-46.7C979.6,685.8,966.1,736.9,938.5,753.5z M1022.3,743.5
		c-1.3,3.8-4.1,6.8-7.8,8.3c-4,1.5-8.6,0.5-12.5-1.5c-6.4-3.3-11-9.3-12.6-16.3c-1.5-7.4,0.5-18.1,8.3-21.3
		c5.4-2.2,12.9-0.1,17.2,3.5c4.6,3.8,7.2,9.7,8.1,15.6C1023.8,735.7,1023.6,739.7,1022.3,743.5L1022.3,743.5z"/>
</g>
<g id="items">
	<g id="Groupe_3">
		<path id="Tracé_7" class="st2" d="M1037.5,740.1l135.7-213c4.1-6.4,12.5-8.3,18.9-4.2c0,0,0,0,0,0l14,8.9
			c6.4,4.1,8.2,12.5,4.2,18.9c0,0,0,0,0,0l0,0l-135.7,213l-23.6,16l-22.2,15l4.2-26.4L1037.5,740.1z"/>
		<path id="Tracé_8" class="st3" d="M1056,751.9l143.1-224.6l7,4.5c6.4,4.1,8.2,12.5,4.2,18.9c0,0,0,0,0,0l0,0l-135.7,213
			L1056,751.9z"/>
		<path id="Tracé_9" class="st4" d="M1037.5,740.1l37.1,23.6l-23.6,16l-22.2,15l4.2-26.4L1037.5,740.1z"/>
		<path id="Tracé_10" class="st5" d="M1033,768.2l18,11.4l-22.2,15L1033,768.2z"/>
		<path id="Tracé_11" class="st6" d="M1159.3,548.9l13.9-21.9c4.1-6.4,12.5-8.3,18.9-4.2c0,0,0,0,0,0l14,8.9
			c6.4,4.1,8.2,12.5,4.2,18.9c0,0,0,0,0,0l0,0l-13.9,21.8L1159.3,548.9z"/>
		
			<rect id="Rectangle_31" x="1166.1" y="545.2" transform="matrix(0.5373 -0.8434 0.8434 0.5373 64.7461 1252.3821)" class="st5" width="15.3" height="43.9"/>
		<path id="Tracé_12" class="st7" d="M1177.9,560.7l21.3-33.4l7,4.5c6.4,4.1,8.2,12.5,4.2,18.9c0,0,0,0,0,0l0,0l-13.9,21.8
			L1177.9,560.7z"/>
	</g>
	<g id="Groupe_4">
		<path id="Tracé_13" class="st8" d="M172.5,348.4l239.6-79.9c7.2-2.4,14.9,1.5,17.3,8.7c0,0,0,0,0,0l0,0l5.2,15.7
			c2.4,7.2-1.5,14.9-8.7,17.3l0,0l0,0l-239.6,79.9l-28.4-2.5l-26.7-2.3l19.9-17.9L172.5,348.4z"/>
		<path id="Tracé_14" class="st9" d="M179.5,369.2L432.1,285l2.6,7.9c2.4,7.2-1.5,14.9-8.7,17.3l0,0l0,0l-239.6,79.9L179.5,369.2z"
			/>
		<path id="Tracé_15" class="st4" d="M172.5,348.4l13.9,41.7l-28.4-2.5l-26.7-2.3l19.9-17.9L172.5,348.4z"/>
		<path id="Tracé_16" class="st5" d="M151.3,367.4l6.7,20.2l-26.7-2.3L151.3,367.4z"/>
		<path id="Tracé_17" class="st2" d="M387.6,276.7l24.6-8.2c7.2-2.4,14.9,1.5,17.3,8.7c0,0,0,0,0,0l0,0l5.2,15.7
			c2.4,7.2-1.5,14.9-8.7,17.3l0,0l0,0l-24.6,8.2L387.6,276.7z"/>
		
			<rect id="Rectangle_32" x="379.6" y="278" transform="matrix(0.9487 -0.3161 0.3161 0.9487 -74.9824 137.8164)" class="st5" width="15.3" height="44"/>
		<path id="Tracé_18" class="st3" d="M394.5,297.5l37.6-12.5l2.6,7.9c2.4,7.2-1.5,14.9-8.7,17.3l0,0l0,0l-24.6,8.2L394.5,297.5z"/>
	</g>
	<g id="Groupe_10">
		<g id="Groupe_7">
			<path id="Tracé_19" class="st5" d="M651.4,364.4l-167.9,57.4l29.6,85.4c62,8.7,124.3-12.9,167.6-58.1L651.4,364.4z"/>
			<g id="Groupe_5">
				<path id="Tracé_20" class="st5" d="M748.2,336.8L597,473.7l-203.5-13.8l21.2-19.1l11.4-10.3L544.7,323l159.7,10.8l15.3,1
					L748.2,336.8z"/>
			</g>
			<g id="Groupe_6">
				<path id="Tracé_21" class="st10" d="M719.8,334.9l-130,117.7l-175-11.8l11.4-10.3L544.7,323l159.7,10.8L719.8,334.9z"/>
			</g>
		</g>
		<g id="Groupe_9">
			<g id="Groupe_8">
				<path id="Tracé_22" class="st2" d="M387.1,577.2l-8.2-0.7l10.8-119.4l178.6-73.3l3.1,7.6l-174,71.4L387.1,577.2z"/>
			</g>
			<path id="Tracé_23" class="st2" d="M387.4,532.7l-1.7-0.5c-5.1,1.9-22.8,11.8-26.3,56.2l36.8,5.7
				C405.7,550.8,391.7,536.1,387.4,532.7z"/>
		</g>
	</g>
	<g id="Groupe_30">
		<g id="Groupe_11">
			<path id="Tracé_24" class="st11" d="M1119.6,266.9c-5-9.6-1.3-21.5,8.3-26.6c9.6-5,21.5-1.3,26.6,8.3c5,9.6,1.3,21.5-8.3,26.6
				c0,0,0,0,0,0l0,0C1136.6,280.3,1124.7,276.6,1119.6,266.9z M1151.6,250.2c-4.2-8-14.1-11.1-22.2-6.9c-8,4.2-11.1,14.1-6.9,22.2
				c4.2,8,14.1,11.1,22.2,6.9C1152.7,268.2,1155.8,258.2,1151.6,250.2L1151.6,250.2z"/>
		</g>
		
			<rect id="Rectangle_33" x="1039.8" y="268.6" transform="matrix(0.8858 -0.4641 0.4641 0.8858 -23.0516 518.832)" class="st12" width="5.7" height="75.3"/>
		<g id="Groupe_26">
			<g id="Groupe_20">
				<g id="Groupe_12">
					<path id="Tracé_25" class="st11" d="M956.7,400L941,415.9l18.5-12.4l16.2-13.4l-2.8-3.4L956.7,400z"/>
				</g>
				<g id="Groupe_14">
					<g id="Groupe_13">
						
							<rect id="Rectangle_34" x="943.9" y="327.7" transform="matrix(0.7707 -0.6372 0.6372 0.7707 27.1001 743.4569)" class="st5" width="205.5" height="12.8"/>
					</g>
				</g>
				<g id="Groupe_16">
					<g id="Groupe_15">
						<path id="Tracé_26" class="st12" d="M995,392.5c-5.2,4.3-12.8,3.6-17.1-1.6c-4.3-5.2-3.6-12.8,1.6-17.1s12.8-3.6,17.1,1.6
							c0,0,0,0,0,0C1000.9,380.6,1000.2,388.2,995,392.5z"/>
					</g>
				</g>
				<g id="Groupe_19">
					<g id="Groupe_18">
						<g id="Groupe_17">
							<path id="Tracé_27" class="st11" d="M991.7,388.5c-3,2.4-7.3,2-9.8-0.9s-2-7.3,0.9-9.8c3-2.4,7.3-2,9.8,0.9c0,0,0,0,0,0
								C995,381.7,994.6,386,991.7,388.5C991.7,388.5,991.7,388.5,991.7,388.5z"/>
						</g>
					</g>
				</g>
			</g>
			<g id="Groupe_21">
				<path id="Tracé_28" class="st11" d="M917.7,325.7l-22,3.9l20.8-8.1l20.3-5.7l1.2,4.3L917.7,325.7z"/>
			</g>
			<g id="Groupe_24">
				<g id="Groupe_23">
					<g id="Groupe_22">
						
							<rect id="Rectangle_35" x="920.5" y="282.8" transform="matrix(0.9626 -0.2709 0.2709 0.9626 -40.0969 288.055)" class="st5" width="205.6" height="12.9"/>
					</g>
				</g>
			</g>
			<g id="Groupe_25">
				
					<rect id="Rectangle_36" x="1129.7" y="249.8" transform="matrix(0.8858 -0.4641 0.4641 0.8858 13.9184 561.2466)" class="st5" width="35.1" height="5"/>
			</g>
			<path id="Tracé_29" class="st11" d="M1026.4,314.8L1026.4,314.8c-0.9-1.8-0.2-4,1.6-5l25.4-13.3c1.8-0.9,4-0.2,5,1.6l0,0
				c0.9,1.8,0.2,4-1.6,5l0,0l-25.3,13.3C1029.6,317.3,1027.4,316.6,1026.4,314.8L1026.4,314.8z"/>
		</g>
		<g id="Groupe_27">
			<path id="Tracé_30" class="st12" d="M1131.3,276.2c-6.7,3.5-14.9,0.9-18.4-5.7c-3.5-6.7-0.9-14.9,5.7-18.4
				c6.7-3.5,14.9-0.9,18.4,5.7c0,0,0,0,0,0l0,0C1140.5,264.5,1138,272.7,1131.3,276.2C1131.3,276.2,1131.3,276.2,1131.3,276.2z"/>
		</g>
		<g id="Groupe_28">
			<path id="Tracé_31" class="st11" d="M1128.5,270.9c-3.7,1.9-8.3,0.5-10.3-3.2s-0.5-8.3,3.2-10.3c3.7-1.9,8.3-0.5,10.3,3.2
				C1133.7,264.3,1132.3,268.9,1128.5,270.9z"/>
		</g>
		<g id="Groupe_29">
			<path id="Rectangle_37" class="st12" d="M1205.8,215.4l5.3,10.1c0.4,0.8,0.1,1.7-0.7,2.1c0,0,0,0,0,0L1162,253
				c-0.8,0.4-1.7,0.1-2.1-0.7c0,0,0,0,0,0l-5.3-10.1c-0.4-0.8-0.1-1.7,0.7-2.1c0,0,0,0,0,0l48.4-25.4
				C1204.4,214.3,1205.4,214.6,1205.8,215.4z"/>
		</g>
	</g>
	<g id="Groupe_32">
		<path id="Tracé_32" class="st11" d="M729.7,872.4c0,0-25.5-61.4-75.7-67.1s-148.2,52.1-317,52.1l-33.1,50.2h425.8V872.4z"/>
		<path id="Tracé_33" class="st12" d="M729.7,872.4c0,0,4.2-53.8-22.6-67.5c-33.2-17-156.3,19.4-303.6-82.9l-45.6,89.7
			c0,0,54.1,34.7,147.5,44.5C624.8,868.8,673.8,798.3,729.7,872.4z"/>
		<path id="Tracé_34" class="st11" d="M729.7,872.4c0,0,25.5-61.4,75.6-67.1s148.3,52.1,317.1,52.1l33.1,50.2H729.7V872.4z"/>
		<path id="Tracé_35" class="st12" d="M729.7,865.3c0,0,12.2-61.4,62.4-68s164.2,39.6,196.2,43s126.6,6.3,126.6,6.3l17.5,25.9
			c0,0-109.6-1.1-143-4.8c-41.1-4.6-130-55.9-190.5-47.3s-67.3,52.2-67.3,52.2L729.7,865.3z"/>
		<g id="Groupe_31">
			<rect id="Rectangle_38" x="283.4" y="907.6" class="st13" width="901" height="25.1"/>
			<path id="Tracé_36" class="st13" d="M761.6,953.2h-63.9c-18.3,0-33.1-14.8-33.1-33.1l0,0h130
				C794.7,938.4,779.9,953.2,761.6,953.2z"/>
			<path id="Tracé_37" class="st14" d="M756,934.7h-52.6c-15.1,0-27.3-12.2-27.3-27.3c0,0,0,0,0,0l0,0l53.6-42.2l53.6,42.2l0,0
				C783.3,922.5,771.1,934.7,756,934.7C756,934.7,756,934.7,756,934.7z"/>
			<path id="Tracé_38" class="st2" d="M783.3,907.5c0,5.8-1.8,11.4-5.2,16.1l-48.4-38.1l-48.4,38.1c-3.4-4.7-5.2-10.3-5.2-16.1
				l53.6-42.2L783.3,907.5z"/>
		</g>
	</g>
	<g id="Groupe_44">
		<g id="Groupe_33">
			<path id="Tracé_39" class="st15" d="M358.3,238.8c-2.6,5.8-9.5,8.4-15.3,5.7l-26.6-12.1c-0.8-0.4-1.2-1.3-0.8-2.2
				c0.4-0.8,1.3-1.2,2.2-0.8l0,0l26.6,12.1c4.1,2,9.1,0.3,11.1-3.8s0.3-9.1-3.8-11.1c-0.1-0.1-0.3-0.1-0.4-0.2l-30.7-13.9
				c-2.9-1.3-6.3,0-7.7,2.9s0,6.3,2.9,7.7l0,0l25.4,11.5c1.7,0.9,3.7,0.2,4.6-1.4c0.9-1.7,0.2-3.7-1.4-4.6c-0.1,0-0.2-0.1-0.3-0.1
				H344l-18.8-8.5c-0.8-0.4-1.2-1.3-0.8-2.2c0.4-0.8,1.3-1.2,2.2-0.8l0,0l18.8,8.5c3.3,1.6,4.7,5.6,3.1,8.9
				c-1.6,3.2-5.3,4.6-8.6,3.2l0,0l-25.4-11.5c-4.6-2-6.6-7.4-4.6-11.9c2-4.6,7.4-6.6,12-4.6l0,0h0.1l30.7,13.9
				C358.4,226.2,361,233,358.3,238.8C358.3,238.8,358.3,238.8,358.3,238.8z"/>
		</g>
		<g id="Groupe_34">
			<path id="Tracé_40" class="st15" d="M316.6,470c0.6-0.3,1.3-0.6,1.8-0.9c6.1-3.2,9.3-7.1,8.9-11c-0.5-4.8-6.1-8.2-14.6-9.8
				c0.8-8.6-1-15-5.5-16.8s-10.2,1.6-15.5,8.4c-7.2-4.7-13.7-6.1-17.4-3c-3,2.5-3.4,7.5-1.2,14.1c0.2,0.6,0.5,1.3,0.7,1.9
				c-7.1,3.2-11.2,7.5-10.7,12c0.4,3.4,3.3,6.1,7.9,7.9c2.2,0.8,4.5,1.5,6.8,1.8c-0.8,8.6,1,15,5.5,16.8s10.2-1.6,15.5-8.4
				c1.9,1.3,4,2.4,6.2,3.3c4.6,1.9,8.6,1.9,11.2-0.3C319.6,483.2,319.5,477.2,316.6,470z M318.4,453.1c3.5,1.4,5.7,3.3,5.9,5.3
				c0.3,2.5-2.4,5.4-7.2,7.9c-0.5,0.3-1.1,0.5-1.7,0.8c-1.4-2.8-3-5.5-4.8-8.1c0.7-2.5,1.3-5,1.7-7.5
				C314.4,451.9,316.4,452.4,318.4,453.1L318.4,453.1z M296.4,472c-1.9,0.2-3.7,0.3-5.5,0.4c-1.2-1.3-2.5-2.6-3.7-4
				c-1.4-1.6-2.6-3.3-3.8-4.9c0.6-1.9,1.3-3.9,2.1-5.9s1.6-3.9,2.5-5.7c2-0.4,4-0.7,6.1-0.9c1.9-0.2,3.7-0.3,5.5-0.4
				c1.2,1.3,2.5,2.6,3.7,4c1.4,1.6,2.7,3.3,3.8,4.9c-0.6,1.9-1.3,3.9-2.1,5.9s-1.6,3.9-2.5,5.7C300.5,471.5,298.5,471.8,296.4,472
				L296.4,472z M300.7,474.6c-0.8,1.5-1.7,2.8-2.6,4.1c-1.3-1-2.7-2.1-4.1-3.3c0.9-0.1,1.8-0.1,2.7-0.2
				C298.1,475,299.4,474.8,300.7,474.6z M286.7,472.4c-1.8,0-3.6-0.2-5.2-0.4c0.2-1.5,0.5-3.1,1-4.8c0.8,1,1.6,2.1,2.5,3.1
				C285.5,471.1,286.1,471.7,286.7,472.4L286.7,472.4z M281.2,460.1c-1.1-1.8-2.2-3.6-3.1-5.5c2-0.7,4-1.4,6-1.9
				c-0.5,1.2-1.1,2.4-1.6,3.6S281.6,458.9,281.2,460.1L281.2,460.1z M289.9,448.4c0.8-1.5,1.7-2.8,2.6-4.1c1.3,1,2.7,2.1,4,3.3
				c-0.9,0.1-1.8,0.1-2.7,0.2C292.5,448,291.2,448.2,289.9,448.4L289.9,448.4z M303.9,450.6c1.8,0,3.6,0.2,5.2,0.4
				c-0.2,1.5-0.5,3.1-1,4.7c-0.8-1-1.6-2.1-2.5-3.1C305.1,451.9,304.5,451.3,303.9,450.6L303.9,450.6z M309.3,462.9
				c1.1,1.8,2.2,3.6,3.1,5.5c-2,0.7-4,1.3-6,1.9c0.5-1.2,1.1-2.4,1.6-3.6S308.9,464.1,309.3,462.9L309.3,462.9z M306,434.4
				c2.7,1.1,4.1,6.1,3.5,13.4c-2.9-0.3-5.8-0.4-8.6-0.4c-2-2-4.2-3.9-6.5-5.7C298.8,436.1,303.3,433.3,306,434.4L306,434.4z
				 M276.4,439.3c1.5-1.3,4.3-1.2,7.9,0.2c1.9,0.8,3.8,1.8,5.5,3c-1.4,2.1-2.8,4.4-3.9,6.6c-3.1,0.6-6.1,1.5-9.1,2.6
				c-0.2-0.6-0.5-1.2-0.6-1.7C274.4,444.9,274.5,441,276.4,439.3L276.4,439.3z M266.3,464.6c-0.3-2.7,3-6,8.9-8.7
				c1.4,2.8,3,5.6,4.8,8.1c-0.7,2.5-1.3,5-1.7,7.5C271.1,470.2,266.6,467.5,266.3,464.6L266.3,464.6z M284.5,488.5
				c-2.7-1.1-4.1-6.2-3.5-13.4c2.9,0.3,5.8,0.5,8.6,0.4c2.1,2,4.2,3.9,6.5,5.7C291.7,486.9,287.2,489.6,284.5,488.5z M314.1,483.7
				c-2.3,1.9-7.4,0.8-13.4-3.2c1.5-2.1,2.8-4.4,4-6.7c3.1-0.6,6.1-1.5,9.1-2.6C316.1,477.2,316.2,481.9,314.1,483.7L314.1,483.7z"/>
			<path id="Tracé_41" class="st15" d="M297.5,455.8c-3.1-1.3-6.7,0.3-7.9,3.4c-1.3,3.1,0.3,6.7,3.4,7.9c3.1,1.3,6.7-0.3,7.9-3.4
				c0,0,0,0,0,0C302.2,460.6,300.7,457.1,297.5,455.8C297.5,455.8,297.5,455.8,297.5,455.8z"/>
		</g>
		<g id="Groupe_35">
			<path id="Tracé_42" class="st15" d="M1164,727.4c-2.3,7.9,1.3,16.4,8.8,20l-2.4,8c-3.8,0.1-7.1,2.5-8.5,6l17.9,5.3
				c0.8-3.7-0.7-7.5-3.8-9.7l2.4-8c8.2,1,15.8-4.1,18.2-12l6.3-21.4l-32.4-9.7L1164,727.4z"/>
			<path id="Tracé_43" class="st15" d="M1181.1,768.7l-21.3-6.3c-0.9-0.2-1.9,0.3-2.1,1.3c-0.2,0.9,0.3,1.8,1.1,2.1l0,0l21.3,6.3
				c0.9,0.2,1.9-0.3,2.1-1.3C1182.4,769.9,1181.9,769,1181.1,768.7z"/>
			<path id="Tracé_44" class="st15" d="M1153.6,715c-1.5,5,1.4,10.2,6.4,11.7l1.9,0.5l1.1-3.6l-1.9-0.5c-3-0.9-4.7-4-3.9-7
				s4-4.7,7-3.9l0,0l1.9,0.5l1.1-3.6l-1.9-0.5C1160.2,707.2,1155,710,1153.6,715z"/>
			<path id="Tracé_45" class="st15" d="M1205.6,720.6l-1.9-0.5l-1.1,3.6l1.9,0.5c3,0.9,4.7,4,3.9,7s-4,4.7-7,3.9h-0.1l-1.9-0.5
				l-1.1,3.6l1.9,0.5c4.9,1.8,10.3-0.6,12.1-5.5s-0.6-10.3-5.5-12.1C1206.5,720.9,1206.1,720.7,1205.6,720.6L1205.6,720.6z"/>
		</g>
		<g id="Groupe_36">
			<path id="Tracé_46" class="st15" d="M1173.5,375.4l-6.1-10.7l-16.2,9.3l6.1,10.7c-4.2,8.3-0.8,18.5,7.5,22.7
				c8.3,4.2,18.5,0.8,22.7-7.5c4.2-8.3,0.8-18.5-7.5-22.7C1178,376.2,1175.8,375.6,1173.5,375.4L1173.5,375.4z M1178.2,402.4
				c-5.6,3.2-12.8,1.3-16-4.4c0,0,0,0,0,0l0,0c0,0,0-0.1,0-0.1l20.3-11.6c0,0,0.1,0,0.1,0.1C1185.8,392.1,1183.9,399.2,1178.2,402.4
				L1178.2,402.4z"/>
			<path id="Tracé_47" class="st15" d="M1149.9,371.2l15.8-9c1.6-0.9,2.3-2.9,1.4-4.5c-0.9-1.6-2.9-2.3-4.5-1.4
				c-0.1,0-0.1,0.1-0.2,0.1l-15.8,9c-1.6,0.9-2.2,2.9-1.3,4.5C1146.3,371.6,1148.3,372.1,1149.9,371.2L1149.9,371.2z"/>
		</g>
		<g id="Groupe_39">
			<path id="Tracé_48" class="st15" d="M854.7,274.9c4.6-5.1,4.2-13.1-0.9-17.7c-1.1-1-2.4-1.8-3.7-2.3l-0.9-5.4
				c-0.5-3.2-3.1-5.6-6.3-5.8l-21.1-1.5c-3.1-0.2-6,1.7-7,4.7l-1.8,5.6c-6.7,1.8-10.7,8.6-8.9,15.3c0.4,1.3,0.9,2.6,1.7,3.7l7.8-6.7
				l1.7,2c-6.2,6.8-7,16.9-1.8,24.5l-3.7,3.2c-0.9,0.7-1.1,2.1-0.4,3.1s2.1,1.1,3.1,0.4c0,0,0.1-0.1,0.1-0.1l0,0l3.7-3.2
				c6.8,6.3,17,7,24.6,1.8l3.6,4.2c0.8,0.9,2.2,1,3.1,0.1c0.8-0.8,1-2.1,0.3-3l0,0l-3.6-4.1c6.3-6.8,7.1-17.1,1.8-24.7l2-1.8
				L854.7,274.9z M843.4,276.9l-12.8,6.6c-0.4,0.2-0.8,0.3-1.2,0.2c-0.5,0-1-0.3-1.4-0.7l-9-9.5c-0.9-0.8-0.9-2.2-0.1-3.1
				s2.2-0.9,3.1-0.1c0.1,0.1,0.1,0.1,0.2,0.2l7.9,8.3l11.3-5.9c1-0.6,2.4-0.2,3,0.8c0.6,1,0.2,2.4-0.8,3
				C843.5,276.9,843.5,276.9,843.4,276.9L843.4,276.9z M838.4,256.1l6.7,7.8l-2,1.8c-2.6-2.4-5.9-4.1-9.4-4.8l0.2-2.8
				c0-1.4-1.1-2.6-2.5-2.6c-1.3,0-2.5,1-2.6,2.3l-0.2,2.8c-3.6,0.2-7,1.4-10,3.5l-1.7-2l7.8-6.7c-2.3-2.1-5.3-3.2-8.4-3.2l1.4-4.2
				c0.6-1.7,2.2-2.9,4.1-2.7l21.1,1.5c1.8,0.1,3.4,1.5,3.7,3.4l0.7,4.2C844,253.7,841,254.4,838.4,256.1L838.4,256.1z"/>
			<g id="Groupe_37">
				<path id="Tracé_49" class="st15" d="M857.5,249.5c-0.7-0.5-1.6-0.3-2,0.4s-0.3,1.6,0.4,2c4.1,2.7,6.5,7.3,6.3,12.1
					c-0.1,1.9,2.8,2.1,2.9,0.2C865.3,258.3,862.4,252.7,857.5,249.5z"/>
				<path id="Tracé_50" class="st15" d="M863.2,245.8c-0.7-0.4-1.6-0.2-2,0.5c-0.4,0.6-0.2,1.4,0.3,1.9c4.1,2.7,6.5,7.3,6.3,12.2
					c-0.1,1.9,2.8,2.1,2.9,0.2C871,254.7,868.1,249.1,863.2,245.8z"/>
			</g>
			<g id="Groupe_38">
				<path id="Tracé_51" class="st15" d="M805.5,245.8c0.7-0.4,1.6-0.1,1.9,0.7c0.4,0.7,0.1,1.6-0.7,1.9c-4.4,2-7.5,6.3-8,11.1
					c-0.2,1.9-3.1,1.6-2.9-0.2C796.5,253.4,800.1,248.3,805.5,245.8z"/>
				<path id="Tracé_52" class="st15" d="M800.4,241.3c0.7-0.3,1.6,0,1.9,0.7c0.3,0.7,0,1.5-0.6,1.9c-4.4,2.1-7.5,6.3-8,11.1
					c-0.2,1.8-3.1,1.7-2.9-0.2C791.4,249,795.1,243.9,800.4,241.3z"/>
			</g>
		</g>
		<g id="Groupe_42">
			<g id="Groupe_40">
				<path id="Tracé_53" class="st15" d="M538.6,253.3l1,4.7l-11.8,2.6l0.9,4.2l10.7-2.4l1,4.7l-10.7,2.4l0.9,4.2l12.2-2.6l1,4.7
					l-18,4l-4.9-22.5L538.6,253.3z"/>
				<path id="Tracé_54" class="st15" d="M557.1,256.2l0.8,3.6l-14.3,3.1l-0.8-3.6L557.1,256.2z M558.6,263.1l0.8,3.6l-14.3,3.1
					l-0.8-3.6L558.6,263.1z"/>
				<path id="Tracé_55" class="st15" d="M590.7,253.9l2.4,10.9l-5.7,1.3l-2-9.3c-0.4-2-1.8-2.9-3.5-2.5c-2,0.5-2.9,2.3-2.4,4.6
					l1.9,8.5l-5.7,1.3l-2-9.3c-0.4-2-1.8-2.9-3.5-2.5c-2,0.5-2.9,2.4-2.4,4.6l1.9,8.5l-5.7,1.3l-3.9-17.3l5.7-1.3l0.6,2.9
					c0.7-2.3,2.7-3.9,5-4.3c2.5-0.7,5.2,0.4,6.6,2.6c0.4-2.7,2.5-4.8,5.2-5.2C586.8,247.8,589.8,249.8,590.7,253.9z"/>
				<path id="Tracé_56" class="st15" d="M602,249.4c-2,0.4-3.1,2.5-2.5,5c0.6,2.5,2.3,3.9,4.4,3.4c1.5-0.2,2.6-1.3,3-2.7l4.7,1.5
					c-0.8,3-3.3,5.1-7,5.9c-5.3,1.2-9.7-1.5-10.8-6.8s1.6-9.7,7-10.9c3.1-0.9,6.4,0.1,8.7,2.4l-3.6,3.3
					C604.8,249.5,603.3,249.1,602,249.4z"/>
			</g>
			<g id="Groupe_41">
				<path id="Tracé_57" class="st15" d="M616,237.2c-0.2-0.7-0.8-1-1.7-0.8c-1.3,0.4-2.4,1.3-3.2,2.4l-1.8-2.2
					c1.3-1.5,3-2.6,4.9-3.1c2.6-0.6,4.8,0.4,5.2,2.4c0.3,1.4-0.4,3.1-1.5,4.9l-2,3.2l5.5-1.2l0.6,2.7l-9.8,2.2l-0.5-2.2l3.6-5.8
					C615.7,238.9,616,238.1,616,237.2z"/>
			</g>
		</g>
		<g id="Groupe_43">
			<path id="Tracé_58" class="st15" d="M413.8,621.3c-6.9,4.1-11.3,11.2-11.9,19.2c-0.5,7.9,2.5,15.7,8.1,21.3
				c3.4,3.3,7.4,5.9,11.8,7.7c11.9,5.2,27.9,6.1,38.8-1.9c3.4-2.5,6.8-6.4,6.5-10.8c-0.4-5-4.8-5.9-8.6-7.7c-3.4-1.6-5.8-5-7.6-8.1
				c-4.1-7.1-7.8-15-14.7-19.4C429.3,617.4,420.7,617.3,413.8,621.3L413.8,621.3z M433.8,668.9c-2.5,1.1-5.4-0.1-6.5-2.6
				c-1.1-2.5,0.1-5.4,2.6-6.5s5.4,0.1,6.5,2.6c0,0,0,0,0,0C437.4,664.9,436.3,667.8,433.8,668.9z M451.4,654.3
				c0.6,1.9-0.4,4-2.3,4.6s-4-0.4-4.6-2.3c-0.6-1.9,0.4-4,2.3-4.6l0,0C448.7,651.3,450.7,652.3,451.4,654.3
				C451.4,654.2,451.4,654.2,451.4,654.3z M422.3,655.1c1.1,2.5-0.1,5.4-2.6,6.5c-2.5,1.1-5.4-0.1-6.5-2.6c-1.1-2.5,0.1-5.4,2.6-6.5
				c0,0,0,0,0,0C418.3,651.5,421.2,652.6,422.3,655.1L422.3,655.1z M412,649c-2.5,1.1-5.5,0-6.6-2.6c-1.1-2.5,0-5.5,2.6-6.6
				c2.5-1.1,5.5,0,6.6,2.6c0,0,0,0.1,0,0.1C415.6,645,414.5,647.9,412,649z M434.3,631.5c1.1,2.5,0,5.5-2.6,6.6
				c-2.5,1.1-5.5,0-6.6-2.6c-1.1-2.5,0-5.5,2.6-6.6c0,0,0.1,0,0.1,0l0,0C430.3,627.9,433.2,629,434.3,631.5L434.3,631.5z M419.9,629
				c1.1,2.5,0,5.5-2.6,6.6c-2.5,1.1-5.5,0-6.6-2.6s0-5.5,2.6-6.6c0,0,0.1,0,0.1,0l0,0C415.9,625.3,418.8,626.5,419.9,629z"/>
			<path id="Tracé_59" class="st15" d="M383.5,671.3c0,0.1,0,0.1,0.1,0.2l0,0c0.1,0.1,0.1,0.1,0.2,0.2l0.1,0.1l0.4,0.3l0.3,0.1
				l0.3,0.1l0.4,0.2l0,0c7.2,3.6,36,12.8,54,18l0,0l1.3,0.4h0.1c1.3,0.3,2.8,0.8,4.5,1.1c1,0.2,2,0.5,3,0.7l1,0.2
				c0.9,0.2,1.8,0.3,2.6,0.5c0.5,0.1,1,0.1,1.4,0.2h0.1c0.5,1.5,1.8,2.5,3.3,2.8c0.3,0.1,0.7,0.1,1,0.1c1.3-0.1,2.6-0.4,3.9-0.8
				c1.9-0.4,3.9,0.1,5.4,1.3l0.3,0.2l0.6,0.5c-0.4-2-1.3-3.9-2.5-5.6c-1.3-1.8-3.1-3.2-5.2-4c-1.4-0.6-3-0.7-4.5-0.1
				c-0.3,0.1-0.6,0.3-0.9,0.5c-0.9-0.5-2.4-1-4-1.6c-2.7-1-6-2-8.2-2.7C421.8,678.5,384.1,669.5,383.5,671.3z"/>
		</g>
	</g>
	<path id="Tracé_60" class="st12" d="M248.4,151.8l-6.2,6.9l2.2,9l-8.5-3.8l-7.9,4.8l0.9-9.2l-7-6l9-1.9l3.5-8.5l4.6,8L248.4,151.8
		z"/>
	<path id="Tracé_61" class="st12" d="M475.2,541l-6.2,6.9l2.2,9l-8.4-3.7l-7.8,4.8l0.9-9.2l-7-6l9-2l3.5-8.5l4.6,8L475.2,541z"/>
	<path id="Tracé_62" class="st12" d="M723.3,269.3l-9,1.8l-3.6,8.5l-4.5-8l-9.2-0.8l6.3-6.8l-2-9l8.4,3.9l7.9-4.7l-1.1,9.2
		L723.3,269.3z"/>
	<path id="Tracé_63" class="st12" d="M1205.2,163.7l-9,1.8l-3.6,8.5l-4.5-8l-9.2-0.8l6.3-6.8l-2-9l8.4,3.9l7.9-4.7l-1.1,9.2
		L1205.2,163.7z"/>
	<path id="Tracé_64" class="st12" d="M1111.1,474.9l-9,1.8l-3.6,8.5l-4.5-8l-9.2-0.8l6.3-6.8l-2-9l8.4,3.9l7.9-4.7l-1.1,9.2
		L1111.1,474.9z"/>
	<path id="Tracé_65" class="st12" d="M1211.6,837l-9.1,1.8l-3.6,8.5l-4.5-8l-9.2-0.8l6.3-6.8l-2-9l8.4,3.8l7.9-4.7l-1.1,9.2
		L1211.6,837z"/>
	<path id="Tracé_66" class="st12" d="M172.1,477.1l-9.1,1.8l-3.6,8.5l-4.5-8l-9.2-0.8l6.3-6.8l-2.1-9l8.4,3.9l7.9-4.7l-1,9.1
		L172.1,477.1z"/>
	<g id="Groupe_46">
		<path id="Tracé_67" class="st6" d="M872.2,414.7l-17.2,3l-13.7-10.8c-8.2-6.5-19.1-9.1-29.1-6c-12,3.8-25.7,15.7-32.3,48.6
			c-13.2,65.8,48,75.8,48,75.8s58.7,20.2,78.2-44.1c9.8-32.1,3.4-49.1-5.5-58.1C893.4,415.8,882.5,412.9,872.2,414.7z"/>
		<path id="Tracé_68" class="st7" d="M846.4,528.3c-6.2-0.1-12.4-1.1-18.4-2.9c0,0-61.2-10-48-75.8c6.6-32.9,20.3-44.9,32.3-48.6
			c10-3.1,20.9-0.5,29.1,5.9l4.9,3.8c-11.5,4.4-24,16.8-30.3,47.9C807.6,500.7,829.4,520,846.4,528.3z"/>
		<g id="Groupe_45">
			<path id="Tracé_69" class="st5" d="M883.5,394.9c-20.6,1-37,15.6-39.7,36.2c-0.9,6.5,9.1,8.9,10,2.3c2.2-16,13.7-27.4,30.1-28.3
				C890.4,404.8,890.1,394.6,883.5,394.9z"/>
			<path id="Tracé_70" class="st16" d="M844.2,382.1c9.8,16.3,2.2,38.8,2.2,38.8s-23.4-4-33.2-20.3s-2.2-38.8-2.2-38.8
				S834.4,365.7,844.2,382.1z"/>
		</g>
	</g>
	<g id="Groupe_48">
		<g id="Groupe_47">
			<path id="Tracé_71" class="st13" d="M1012.5,553.9c-10,2.6-42.9,19.8-60.5,30.4c-90.8,54.5-251.1,159.6-246.3,167.6
				s173-84.1,263.7-138.6c17.6-10.6,48.2-31,55.3-39.1L1012.5,553.9z"/>
			<path id="Tracé_72" class="st12" d="M969.4,613.3c17.6-10.6,48.2-31,55.3-39.1l-12.2-20.3c-10,2.6-42.9,19.8-60.5,30.4
				c-2,1.2-4,2.4-6,3.6l17.4,29L969.4,613.3z"/>
			<path id="Tracé_73" class="st14" d="M722.3,747.5c-9.8,4.1-15.8,5.8-16.6,4.4c-4.8-8,155.6-113.1,246.3-167.6
				c17.6-10.6,50.5-27.8,60.5-30.4l4.9,8.1c-10,2.6-42.9,19.8-60.5,30.4C882.2,637.3,760.4,716.4,722.3,747.5z"/>
			<path id="Tracé_74" class="st11" d="M1017.4,562c-10,2.6-42.8,19.8-60.5,30.4l-5.9,3.6l-4.9-8.1l5.9-3.6
				c17.7-10.6,50.5-27.9,60.5-30.4L1017.4,562z"/>
		</g>
		<path id="Tracé_75" class="st5" d="M1011.2,567.9c-3-5.5-3.4-12-1.2-17.8c2.4-6.8,8.8-12.2,15.7-15.6c9.9-4.7,20.9-6.5,31.7-5.2
			c10.1,1.4,19.8,4.8,28.6,10.1c-1.4,0.2-2.7,0.3-4.1,0.5c-0.6,0.1-1.1,0.2-1.6,0.3c-9.7,1.8-17.7,5.8-23.2,14.9
			c-3.4,5.6-6,11.7-10.6,16.6c-1.1,1.2-2.4,2.3-3.7,3.2c-9.5,7-22.9,4.9-29.9-4.6C1012.3,569.6,1011.7,568.8,1011.2,567.9z"/>
	</g>
	<g id="Groupe_53">
		<path id="Tracé_76" class="st3" d="M133.6,141.5l65,122c1.8,3.5,0.5,7.8-2.9,9.6l0,0l-18.3,9.9c-3.5,1.9-7.8,0.6-9.6-2.9
			c0,0,0,0,0,0l0,0l-65-122.1c-1.8-3.5-0.5-7.8,2.9-9.6l0,0l18.3-9.8C127.4,136.8,131.7,138.1,133.6,141.5L133.6,141.5z"/>
		<path id="Tracé_77" class="st2" d="M105.6,148.4c-3.5,1.9-4.8,6.2-2.9,9.6c0,0,0,0,0,0l65,122c1.9,3.5,6.2,4.8,9.6,2.9l9.1-4.9
			l-71.7-134.6L105.6,148.4z"/>
		<g id="Groupe_49">
			<path id="Tracé_78" class="st3" d="M99.4,114.7L99.4,114.7c-2.7,1.5-4.3,4.4-3.9,7.5l0.7,5.5c0.6,4.7,2,9.2,4.2,13.4l4.4,8.4
				L115,144l10.2-5.4l-4.4-8.4c-2.2-4.2-5.2-7.9-8.8-11l-4.2-3.6C105.5,113.6,102.1,113.2,99.4,114.7z"/>
			<path id="Tracé_79" class="st2" d="M105.8,114.4c-0.2,0.8-0.2,1.6-0.1,2.3l0.7,5.5c0.6,4.7,2,9.2,4.2,13.4l4.4,8.4l-10.2,5.4
				l-4.4-8.4c-2.2-4.2-3.7-8.7-4.2-13.4l-0.7-5.5c-0.4-3.1,1.2-6,3.9-7.5l0,0C101.4,113.6,103.7,113.5,105.8,114.4z"/>
		</g>
		<g id="Groupe_52">
			<g id="Groupe_50">
				
					<rect id="Rectangle_39" x="103.9" y="152.4" transform="matrix(0.8826 -0.4701 0.4701 0.8826 -59.055 75.3808)" class="st5" width="35" height="7.1"/>
				
					<rect id="Rectangle_40" x="110.7" y="165.2" transform="matrix(0.8826 -0.4701 0.4701 0.8826 -64.2862 80.0976)" class="st5" width="35" height="7.1"/>
				<path id="Tracé_80" class="st5" d="M157.6,205c6.3,11.8,7.9,23.3,3.6,25.6s-12.9-5.4-19.2-17.3s-7.9-23.3-3.6-25.6
					S151.3,193.1,157.6,205z"/>
			</g>
			<g id="Groupe_51">
				
					<rect id="Rectangle_41" x="155" y="248.4" transform="matrix(0.8826 -0.4701 0.4701 0.8826 -98.1653 110.6709)" class="st5" width="35" height="7.1"/>
				
					<rect id="Rectangle_42" x="161.8" y="261.2" transform="matrix(0.8826 -0.4701 0.4701 0.8826 -103.3878 115.3765)" class="st5" width="35" height="7.1"/>
			</g>
		</g>
	</g>
	<g id="Groupe_58">
		<path id="Tracé_81" class="st16" d="M716.1,644.6L624.2,748c-2.6,2.9-7.1,3.2-10,0.6l0,0l-15.5-13.8c-2.9-2.6-3.2-7.1-0.6-10l0,0
			l91.9-103.4c2.6-2.9,7.1-3.2,10.1-0.6c0,0,0,0,0,0l0,0l15.5,13.8C718.4,637.3,718.7,641.8,716.1,644.6L716.1,644.6z"/>
		<path id="Tracé_82" class="st17" d="M700,620.8c-2.9-2.6-7.4-2.3-10.1,0.6L598,724.7c-2.6,2.9-2.4,7.4,0.6,10.1c0,0,0,0,0,0l0,0
			l7.8,6.9l101.3-114L700,620.8z"/>
		<g id="Groupe_54">
			<path id="Tracé_83" class="st16" d="M729.4,603.3L729.4,603.3c-2.3-2-5.6-2.4-8.4-1l-4.9,2.5c-4.2,2.1-8,5-11.1,8.6l-6.3,7.1
				l8.6,7.7l8.6,7.7l6.3-7.1c3.1-3.5,5.6-7.6,7.3-12l2-5.2C732.5,608.6,731.7,605.3,729.4,603.3z"/>
			<path id="Tracé_84" class="st17" d="M731.9,609.2c-0.8,0.1-1.5,0.3-2.2,0.7l-4.9,2.6c-4.2,2.1-7.9,5.1-11.1,8.6l-6.3,7.1
				l-8.6-7.7l6.3-7.1c3.1-3.5,6.9-6.4,11.1-8.6l5-2.5c2.7-1.4,6-1,8.4,1l0,0C731.1,604.7,732,606.9,731.9,609.2z"/>
		</g>
		<g id="Groupe_57">
			<g id="Groupe_55">
				
					<rect id="Rectangle_43" x="694.8" y="620.8" transform="matrix(0.6644 -0.7473 0.7473 0.6644 -242.7007 736.0814)" class="st5" width="7.1" height="35"/>
				
					<rect id="Rectangle_44" x="685.1" y="631.7" transform="matrix(0.6644 -0.7473 0.7473 0.6644 -254.0356 732.5103)" class="st5" width="7.1" height="35"/>
				<path id="Tracé_85" class="st5" d="M664.9,689.1c-8.9,10-19.1,15.5-22.7,12.3s0.6-14,9.5-24s19.1-15.5,22.7-12.3
					S673.8,679.1,664.9,689.1z"/>
			</g>
			<g id="Groupe_56">
				
					<rect id="Rectangle_45" x="622.5" y="702" transform="matrix(0.6643 -0.7475 0.7475 0.6643 -327.6336 709.4704)" class="st5" width="7.1" height="35"/>
				
					<rect id="Rectangle_46" x="612.9" y="712.9" transform="matrix(0.6644 -0.7473 0.7473 0.6644 -339.0106 705.795)" class="st5" width="7.1" height="35"/>
			</g>
		</g>
	</g>
	<g id="Groupe_63">
		<path id="Tracé_86" class="st7" d="M650.5,583.1l-132.9,38.2c-3.8,1.1-7.7-1.1-8.8-4.9c0,0,0,0,0,0l0,0l-5.8-19.9
			c-1.1-3.8,1-7.7,4.8-8.8l0,0l132.9-38.2c3.8-1.1,7.7,1.1,8.8,4.9l0,0l5.7,19.9C656.3,578.1,654.2,582,650.5,583.1
			C650.4,583.1,650.4,583.1,650.5,583.1L650.5,583.1z"/>
		<path id="Tracé_87" class="st6" d="M649.6,554.3c-1.1-3.8-5-6-8.8-4.9l-132.9,38.2c-3.8,1.1-6,5-4.9,8.8l2.9,10l146.6-42.2
			L649.6,554.3z"/>
		<g id="Groupe_59">
			<path id="Tracé_88" class="st7" d="M683.8,555.3L683.8,555.3c-0.9-3-3.4-5.1-6.5-5.4l-5.5-0.5c-4.7-0.4-9.5,0-14,1.3l-9.1,2.6
				l3.2,11.1l3.2,11.1l9.1-2.6c4.5-1.3,8.8-3.4,12.5-6.3l4.4-3.3C683.6,561.5,684.7,558.3,683.8,555.3z"/>
			<path id="Tracé_89" class="st6" d="M682.8,561.6c-0.7-0.3-1.5-0.5-2.3-0.6l-5.5-0.5c-4.7-0.4-9.5,0-14,1.3l-9.1,2.6l-3.2-11.1
				l9.1-2.6c4.5-1.3,9.3-1.8,14-1.3l5.5,0.5c3.1,0.3,5.7,2.4,6.5,5.3l0,0C684.5,557.4,684.1,559.7,682.8,561.6z"/>
		</g>
		<g id="Groupe_62">
			<g id="Groupe_60">
				
					<rect id="Rectangle_47" x="635.3" y="550.8" transform="matrix(0.961 -0.2765 0.2765 0.961 -132.206 198.7802)" class="st5" width="7.1" height="35"/>
				
					<rect id="Rectangle_48" x="621.4" y="554.8" transform="matrix(0.961 -0.2765 0.2765 0.961 -133.8574 195.0829)" class="st5" width="7.1" height="35"/>
				<path id="Tracé_90" class="st5" d="M583.4,593.4c-12.9,3.7-24.4,2.9-25.8-1.8s8-11.5,20.9-15.2s24.4-2.9,25.8,1.8
					S596.3,589.7,583.4,593.4z"/>
			</g>
			<g id="Groupe_61">
				
					<rect id="Rectangle_49" x="530.8" y="580.8" transform="matrix(0.961 -0.2765 0.2765 0.961 -144.5827 171.0642)" class="st5" width="7.1" height="35"/>
				
					<rect id="Rectangle_50" x="516.9" y="584.8" transform="matrix(0.961 -0.2765 0.2765 0.961 -146.2352 167.3643)" class="st5" width="7.1" height="35"/>
			</g>
		</g>
	</g>
</g>
</svg>
